<svg width="64" height="64" viewBox="0 0 64 64" fill="none" xmlns="http://www.w3.org/2000/svg">
  <defs>
    <linearGradient id="healthscope-bg" x1="10" y1="8" x2="56" y2="58" gradientUnits="userSpaceOnUse">
      <stop stop-color="#0D6F7C"/>
      <stop offset="1" stop-color="#0E9F8A"/>
    </linearGradient>
    <linearGradient id="healthscope-mark" x1="22" y1="20" x2="48" y2="42" gradientUnits="userSpaceOnUse">
      <stop stop-color="#FFF7E8"/>
      <stop offset="1" stop-color="#F0A45D"/>
    </linearGradient>
  </defs>

  <rect x="4" y="4" width="56" height="56" rx="18" fill="url(#healthscope-bg)"/>
  <rect x="5.5" y="5.5" width="53" height="53" rx="16.5" stroke="#FFFFFF" stroke-opacity="0.16" stroke-width="1"/>

  <circle cx="32" cy="32" r="17" stroke="#FFF7E8" stroke-width="4" stroke-opacity="0.95"/>
  <circle cx="49" cy="18" r="3" fill="#F0A45D"/>

  <path
    d="M28 18C28 16.8954 28.8954 16 30 16H34C35.1046 16 36 16.8954 36 18V28H40C41.1046 28 42 28.8954 42 30V34C42 35.1046 41.1046 36 40 36H36V40C36 41.1046 35.1046 42 34 42H30C28.8954 42 28 41.1046 28 40V36H24C22.8954 36 22 35.1046 22 34V30C22 28.8954 22.8954 28 24 28H28V18Z"
    fill="#FFF7E8"
  />

  <rect x="39" y="34" width="4" height="8" rx="2" fill="url(#healthscope-mark)"/>
  <rect x="44" y="30" width="4" height="12" rx="2" fill="url(#healthscope-mark)"/>
  <rect x="49" y="26" width="4" height="16" rx="2" fill="url(#healthscope-mark)"/>
</svg>
